<svg xmlns="http://www.w3.org/2000/svg" width="23" height="25" viewBox="0 0 23 25">
    <g fill="none" fill-rule="evenodd" stroke="#464457" stroke-linecap="round" stroke-linejoin="round" stroke-width="1.5">
        <path d="M12.593 23.473a.795.795 0 1 1-1.591 0 .795.795 0 0 1 1.59 0zM14.753 14.278L8.8 14.266c-1.579-.004-2.89-1.082-3.007-2.476a5.317 5.317 0 0 1 .048-1.284l.798-5.009c.315-2.327 2.548-4.076 5.197-4.071 2.648.006 4.874 1.766 5.178 4.094l.723 5.111c.05.36.065.723.042 1.084l-.003.043c-.09 1.417-1.418 2.524-3.022 2.52zM16.468 20.079h-9.29a2.322 2.322 0 0 1-2.323-2.323c0-.428.347-.774.774-.774h12.387c.428 0 .775.346.775.774a2.322 2.322 0 0 1-2.323 2.323zM11.823 15.114v1.719M11.823 20.079v2.903"/>
        <path d="M2.533 13.65v2.323a2.322 2.322 0 0 0 2.322 2.323M21.113 13.65v2.323a2.322 2.322 0 0 1-2.322 2.323M6.812 23.473a.795.795 0 1 1-1.591 0 .795.795 0 0 1 1.59 0zM18.425 23.473a.795.795 0 1 1-1.591 0 .795.795 0 0 1 1.59 0zM1.403 13.63h2.323M19.952 13.63h2.323M6.016 22.677h11.613"/>
    </g>
</svg>
